<?xml version="1.0" standalone="no" ?>
<!DOCTYPE svg PUBLIC "-//W3C//DTD SVG 1.1//EN" "http://www.w3.org/Graphics/SVG/1.1/DTD/svg11.dtd">
<svg width="100px" height="100px" xmlns="http://www.w3.org/2000/svg" version="1.1" >
	<polygon points="0,100 100,100 100,0 0,0 " fill="transparent" stroke-width="1" stroke="rgb(255,0,0)" />
	<polyline points="5,95 15,65 25,55 35,50 45,51 " fill="transparent" stroke-width="0.5" stroke="rgb(0,0,255)" />
	<circle cx="5" cy="95" r="0.75" fill="rgb(0,0,0)" />
	<circle cx="15" cy="65" r="0.75" fill="rgb(0,0,0)" />
	<circle cx="25" cy="55" r="0.75" fill="rgb(0,0,0)" />
	<circle cx="35" cy="50" r="0.75" fill="rgb(0,0,0)" />
	<circle cx="45" cy="51" r="0.75" fill="rgb(0,0,0)" />
	<polyline points="5,85 15,73 25,65 35,63 45,65 " fill="transparent" stroke-width="0.5" stroke="rgb(0,255,255)" />
	<circle cx="5" cy="85" r="0.75" fill="rgb(0,0,0)" />
	<circle cx="15" cy="73" r="0.75" fill="rgb(0,0,0)" />
	<circle cx="25" cy="65" r="0.75" fill="rgb(0,0,0)" />
	<circle cx="35" cy="63" r="0.75" fill="rgb(0,0,0)" />
	<circle cx="45" cy="65" r="0.75" fill="rgb(0,0,0)" />
	<polyline points="5,83 15,80 25,81 35,85 45,93 " fill="transparent" stroke-width="0.5" stroke="rgb(255,0,255)" />
	<circle cx="5" cy="83" r="0.75" fill="rgb(0,0,0)" />
	<circle cx="15" cy="80" r="0.75" fill="rgb(0,0,0)" />
	<circle cx="25" cy="81" r="0.75" fill="rgb(0,0,0)" />
	<circle cx="35" cy="85" r="0.75" fill="rgb(0,0,0)" />
	<circle cx="45" cy="93" r="0.75" fill="rgb(0,0,0)" />
	<polyline points="5,45.5 5,95 49,95 " fill="transparent" stroke-width="0.5" stroke="rgb(128,0,128)" />
	<polyline points="65,95 75,87 85,82 " fill="transparent" stroke-width="0.5" stroke="rgb(0,0,255)" />
	<circle cx="65" cy="95" r="0.333333" fill="rgb(0,0,0)" />
	<circle cx="75" cy="87" r="0.333333" fill="rgb(0,0,0)" />
	<circle cx="85" cy="82" r="0.333333" fill="rgb(0,0,0)" />
	<polyline points="65,85 75,79 85,75 " fill="transparent" stroke-width="0.5" stroke="rgb(255,165,0)" />
	<circle cx="65" cy="85" r="0.333333" fill="rgb(0,0,0)" />
	<circle cx="75" cy="79" r="0.333333" fill="rgb(0,0,0)" />
	<circle cx="85" cy="75" r="0.333333" fill="rgb(0,0,0)" />
	<polyline points="65,90 75,82 85,79 " fill="transparent" stroke-width="0.5" stroke="rgb(0,255,255)" />
	<circle cx="65" cy="90" r="0.333333" fill="rgb(0,0,0)" />
	<circle cx="75" cy="82" r="0.333333" fill="rgb(0,0,0)" />
	<circle cx="85" cy="79" r="0.333333" fill="rgb(0,0,0)" />
	<polyline points="65,73 65,95 87,95 " fill="transparent" stroke-width="0.5" stroke="rgb(128,0,128)" />
	<circle cx="80" cy="20" r="10" fill="rgb(100,200,120)" stroke-width="1" stroke="rgb(200,250,150)" />
	<text x="5" y="23" fill="rgb(192,192,192)" font-size="10" font-family="Verdana" >Simple SVG</text>
	<polygon points="20,30 25,28 33,30 35,40 25,45 18,37 " fill="rgb(200,160,220)" stroke-width="0.5" stroke="rgb(150,160,200)" />
	<rect x="70" y="45" width="20" height="15" fill="rgb(255,255,0)" />
</svg>
