ply
format ascii 1.0
element vertex 62
property float x
property float y
property float z
element face 36
property list uchar int vertex_indices
end_header
0 0 5.23607
2.61803 0 4.23607
1.61803 2.61803 4.23607
0 1.61803 4.23607
-1.61803 2.61803 4.23607
-2.61803 0 4.23607
-1.61803 -2.61803 4.23607
0 -1.61803 4.23607
1.61803 -2.61803 4.23607
4.23607 1.61803 2.61803
2.61803 2.61803 2.61803
0 4.23607 2.61803
-2.61803 2.61803 2.61803
-4.23607 1.61803 2.61803
-4.23607 -1.61803 2.61803
-2.61803 -2.61803 2.61803
0 -4.23607 2.61803
2.61803 -2.61803 2.61803
4.23607 -1.61803 2.61803
4.23607 0 1.61803
2.61803 4.23607 1.61803
-2.61803 4.23607 1.61803
-4.23607 0 1.61803
-2.61803 -4.23607 1.61803
2.61803 -4.23607 1.61803
5.23607 0 0
4.23607 2.61803 0
1.61803 4.23607 0
0 5.23607 0
-1.61803 4.23607 0
-4.23607 2.61803 0
-5.23607 0 0
-4.23607 -2.61803 0
-1.61803 -4.23607 0
0 -5.23607 0
1.61803 -4.23607 0
4.23607 -2.61803 0
4.23607 0 -1.61803
2.61803 4.23607 -1.61803
-2.61803 4.23607 -1.61803
-4.23607 0 -1.61803
-2.61803 -4.23607 -1.61803
2.61803 -4.23607 -1.61803
4.23607 1.61803 -2.61803
2.61803 2.61803 -2.61803
0 4.23607 -2.61803
-2.61803 2.61803 -2.61803
-4.23607 1.61803 -2.61803
-4.23607 -1.61803 -2.61803
-2.61803 -2.61803 -2.61803
0 -4.23607 -2.61803
2.61803 -2.61803 -2.61803
4.23607 -1.61803 -2.61803
2.61803 0 -4.23607
1.61803 2.61803 -4.23607
0 1.61803 -4.23607
-1.61803 2.61803 -4.23607
-2.61803 0 -4.23607
-1.61803 -2.61803 -4.23607
0 -1.61803 -4.23607
1.61803 -2.61803 -4.23607
0 0 -5.23607
3 3 7 10 
3 10 7 17 
3 10 17 19 
3 3 12 22 
3 3 22 7 
3 7 22 15 
3 3 10 27 
3 3 27 29 
3 3 29 12 
3 7 15 33 
3 7 33 17 
3 17 33 35 
3 10 19 27 
3 19 44 27 
3 19 37 44 
3 12 29 22 
3 22 29 40 
3 40 29 46 
3 15 22 33 
3 33 22 49 
3 49 22 40 
3 17 35 51 
3 17 51 37 
3 17 37 19 
3 27 44 55 
3 27 55 46 
3 27 46 29 
3 33 49 59 
3 33 59 35 
3 35 59 51 
3 37 51 59 
3 37 59 55 
3 37 55 44 
3 40 46 55 
3 40 55 59 
3 40 59 49 
