ply
format ascii 1.0
element vertex 62
property float x
property float y
property float z
element face 20
property list uchar int vertex_indices
end_header
0 0 5.23607
2.61803 0 4.23607
1.61803 2.61803 4.23607
0 1.61803 4.23607
-1.61803 2.61803 4.23607
-2.61803 0 4.23607
-1.61803 -2.61803 4.23607
0 -1.61803 4.23607
1.61803 -2.61803 4.23607
4.23607 1.61803 2.61803
2.61803 2.61803 2.61803
0 4.23607 2.61803
-2.61803 2.61803 2.61803
-4.23607 1.61803 2.61803
-4.23607 -1.61803 2.61803
-2.61803 -2.61803 2.61803
0 -4.23607 2.61803
2.61803 -2.61803 2.61803
4.23607 -1.61803 2.61803
4.23607 0 1.61803
2.61803 4.23607 1.61803
-2.61803 4.23607 1.61803
-4.23607 0 1.61803
-2.61803 -4.23607 1.61803
2.61803 -4.23607 1.61803
5.23607 0 0
4.23607 2.61803 0
1.61803 4.23607 0
0 5.23607 0
-1.61803 4.23607 0
-4.23607 2.61803 0
-5.23607 0 0
-4.23607 -2.61803 0
-1.61803 -4.23607 0
0 -5.23607 0
1.61803 -4.23607 0
4.23607 -2.61803 0
4.23607 0 -1.61803
2.61803 4.23607 -1.61803
-2.61803 4.23607 -1.61803
-4.23607 0 -1.61803
-2.61803 -4.23607 -1.61803
2.61803 -4.23607 -1.61803
4.23607 1.61803 -2.61803
2.61803 2.61803 -2.61803
0 4.23607 -2.61803
-2.61803 2.61803 -2.61803
-4.23607 1.61803 -2.61803
-4.23607 -1.61803 -2.61803
-2.61803 -2.61803 -2.61803
0 -4.23607 -2.61803
2.61803 -2.61803 -2.61803
4.23607 -1.61803 -2.61803
2.61803 0 -4.23607
1.61803 2.61803 -4.23607
0 1.61803 -4.23607
-1.61803 2.61803 -4.23607
-2.61803 0 -4.23607
-1.61803 -2.61803 -4.23607
0 -1.61803 -4.23607
1.61803 -2.61803 -4.23607
0 0 -5.23607
3 1 5 16 
3 1 11 5 
3 1 16 36 
3 1 36 26 
3 1 26 11 
3 36 53 26 
3 26 53 45 
3 26 45 11 
3 11 45 30 
3 11 30 5 
3 5 30 32 
3 5 32 16 
3 16 32 50 
3 16 50 36 
3 36 50 53 
3 57 53 50 
3 57 45 53 
3 57 30 45 
3 57 32 30 
3 57 50 32 
